<svg width="165" height="165" viewBox="0 0 165 165" fill="none" xmlns="http://www.w3.org/2000/svg">
<path d="M79 61.8332C65.6906 61.5152 53.0956 59.3915 43.6091 55.8341C33.2946 51.9661 27.5 46.7201 27.5 41.25C27.5 35.7799 33.2946 30.5339 43.6091 26.6659C53.9236 22.798 67.9131 20.625 82.5 20.625C94.259 20.625 105.63 22.0371 115 24.6109" stroke="white" stroke-width="7" stroke-linecap="round" stroke-linejoin="round"/>
<path d="M27.5 41.25V82.5C27.5 87.9701 33.2946 93.2161 43.6091 97.0841M83 103C97.5869 103 111.076 100.952 121.391 97.0841C131.705 93.2161 137.5 87.9701 137.5 82.5V48" stroke="white" stroke-width="7" stroke-linecap="round" stroke-linejoin="round"/>
<path d="M27.5 82.5V126.5M137.5 82.5V123.75C137.5 129.22 131.705 134.466 121.391 138.334C111.076 142.202 97.0869 144.375 82.5 144.375C67.9131 144.375 53.9236 142.202 43.6091 138.334C39.1218 136.467 38.5 136.333 38 136" stroke="white" stroke-width="7" stroke-linecap="round" stroke-linejoin="round"/>
<path d="M133.263 52.3129C136.248 49.3007 137.914 45.226 137.895 40.9851C137.876 36.7442 136.173 32.6846 133.161 29.6993C130.149 26.7141 126.074 25.0476 121.833 25.0667C117.593 25.0857 113.533 26.7886 110.548 29.8008L35.1926 105.873C33.8816 107.192 32.9151 108.813 32.3781 110.594L24.9987 135.315C24.8543 135.807 24.8457 136.328 24.9736 136.824C25.1015 137.319 25.3612 137.771 25.7252 138.131C26.0892 138.492 26.5439 138.746 27.0411 138.869C27.5382 138.991 28.0592 138.977 28.5489 138.827L53.2065 131.226C54.9805 130.677 56.5927 129.702 57.9017 128.385L133.263 52.3129Z" stroke="white" stroke-width="7" stroke-linecap="round" stroke-linejoin="round"/>
</svg>
